<svg xmlns="http://www.w3.org/2000/svg" viewBox="0 0 500 500"><g id="freepik--background-complete--inject-1"><rect x="46.11" y="315.74" width="26.48" height="11.19" style="fill:#ebebeb"></rect><rect x="31.34" y="329.85" width="26.48" height="11.19" style="fill:#ebebeb"></rect><rect x="366.38" y="147.56" width="26.48" height="11.19" style="fill:#ebebeb"></rect><rect x="351.6" y="161.67" width="26.48" height="11.19" style="fill:#ebebeb"></rect><rect x="336.89" y="147.56" width="26.48" height="11.19" style="fill:#ebebeb"></rect><rect x="442.18" y="329.85" width="26.48" height="11.19" style="fill:#ebebeb"></rect><rect x="427.41" y="46.74" width="26.48" height="11.19" style="fill:#ebebeb"></rect><rect x="442.18" y="60.85" width="26.48" height="11.19" style="fill:#ebebeb"></rect><rect x="46.11" y="46.74" width="26.48" height="11.19" style="fill:#ebebeb"></rect><rect x="49.91" y="145.59" width="172.13" height="10.22" style="fill:#ebebeb"></rect><rect x="62.98" y="155.82" width="10.22" height="33.8" style="fill:#ebebeb"></rect><rect x="62.98" y="155.82" width="10.22" height="10.45" style="fill:#dbdbdb"></rect><rect x="198.76" y="155.82" width="10.22" height="33.8" style="fill:#ebebeb"></rect><rect x="198.76" y="155.82" width="10.22" height="10.45" style="fill:#dbdbdb"></rect><rect x="69.05" y="104.82" width="65.14" height="16.4" transform="translate(214.65 11.41) rotate(90)" style="fill:#c7c7c7"></rect><rect x="98.04" y="72.35" width="7.16" height="16.4" transform="translate(182.17 -21.07) rotate(90)" style="fill:#dbdbdb"></rect><rect x="100.29" y="86.43" width="2.66" height="16.4" transform="translate(196.25 -6.99) rotate(90)" style="fill:#dbdbdb"></rect><rect x="99.06" y="124.25" width="7.16" height="18.45" transform="translate(236.11 30.83) rotate(90)" style="fill:#dbdbdb"></rect><rect x="77.56" y="101.87" width="75.98" height="11.46" transform="translate(223.16 -7.95) rotate(90)" style="fill:#dbdbdb"></rect><rect x="100.89" y="87.93" width="29.22" height="6.88" transform="translate(206.87 -24.14) rotate(90)" style="fill:#ebebeb"></rect><rect x="133.8" y="109.09" width="75.98" height="11.46" transform="translate(130.33 -87.61) rotate(44.67)" style="fill:#c7c7c7"></rect><rect x="161.16" y="115.26" width="29.22" height="6.88" transform="translate(134.2 -89.28) rotate(44.67)" style="fill:#dbdbdb"></rect><rect x="102.15" y="107.02" width="57.72" height="19.47" transform="translate(247.76 -14.26) rotate(90)" style="fill:#a6a6a6"></rect><rect x="128.32" y="127.07" width="5.38" height="19.47" transform="translate(267.81 5.79) rotate(90)" style="fill:#c7c7c7"></rect><rect x="129.97" y="119.8" width="2.09" height="19.47" transform="translate(260.55 -1.48) rotate(90)" style="fill:#c7c7c7"></rect><rect x="59.57" y="111.76" width="54.24" height="13.45" transform="translate(205.18 31.79) rotate(90)" style="fill:#a6a6a6"></rect><rect x="84.17" y="130.61" width="5.06" height="13.45" transform="translate(224.02 50.64) rotate(90)" style="fill:#c7c7c7"></rect><rect x="84.17" y="98.35" width="5.06" height="13.45" transform="translate(191.77 18.38) rotate(90)" style="fill:#c7c7c7"></rect><rect x="85.71" y="105.32" width="1.96" height="13.45" transform="translate(198.74 25.35) rotate(90)" style="fill:#c7c7c7"></rect></g><g id="freepik--Table--inject-1"><polygon points="458.68 420.17 406.51 420.42 354.34 420.5 250 420.67 145.66 420.51 93.49 420.42 41.32 420.17 93.49 419.93 145.66 419.84 250 419.68 354.34 419.84 406.51 419.93 458.68 420.17" style="fill:#263238"></polygon></g><g id="freepik--Character--inject-1"><path d="M227.37,297.35C232.46,333,245,378.7,256.81,388.69c9.54,8.07,61.65,25.24,64.59,25.81,7.28,1.36,26.14-49.29,18.7-52-9.36-3.46-54.82-8.72-57.19-11.6S265.76,324,249.17,296.41C237.72,277.34,224.2,275.22,227.37,297.35Z" style="fill: rgb(235, 148, 129);"></path><path d="M315.74,411.15c.84.52,12.73,7.81,20.22,10.68,5.59,2.14,21.85,7.88,24.82,2,2-4-7.13-8.53-13.54-11.86-3.38-1.75-7.38-5.77-6.16-7.93,2.13-3.78,10.81.92,16.44,4.86,10.89,7.62,25.14,20.88,32.62,15.66,2.83-2,.09-6.24-4.07-10.53,6.91,5.18,14.36,9.58,17.59,7.51,1.85-1.17,2.08-3,1.29-5.14,2.19.92,4.19.95,5.7-.4,2.58-2.28,1.73-6-.55-10a2.85,2.85,0,0,0,2.27-1.23c5.66-7.23-17.6-31.3-26.11-34.09-25-8.22-52.4-8.29-52.4-8.29C323.15,369.51,315.72,411.14,315.74,411.15Z" style="fill: rgb(235, 148, 129);"></path><path d="M355.29,390.79a43.5,43.5,0,0,1,16.49,8c6.12,4.82,10,10.18,15,15.68.13.14-.09.35-.22.21-2.39-2.62-12.36-12.52-15-14.8a41.37,41.37,0,0,0-16.34-9C355.19,390.88,355.22,390.78,355.29,390.79Z" style="fill:#263238"></path><path d="M361,380.35c6.56,2.4,13.29,4.84,19.25,8.54,6.53,4.05,11.39,10.16,16.18,16.06q4.32,5.31,8.39,10.81c.11.15-.1.36-.22.2q-7.28-9.12-15.1-17.79a54.75,54.75,0,0,0-17.12-12.92c-3.72-1.79-7.57-3.28-11.41-4.78A.06.06,0,0,1,361,380.35Z" style="fill:#263238"></path><path d="M368.93,371.48c6.41,1.89,12,3.51,17.49,7.49,7.26,5.27,14,13.69,16.35,16.67,2.6,3.3,5.09,6.68,7.53,10.09.1.14-.14.32-.24.18a217.33,217.33,0,0,0-18.24-21.38,43.18,43.18,0,0,0-10.52-8.17,78.26,78.26,0,0,0-12.38-4.84S368.9,371.47,368.93,371.48Z" style="fill:#263238"></path><path d="M237.65,357.8l39.51-22.13S261.78,308.34,246,287.74,223.93,279,226.2,301.33,237.65,357.8,237.65,357.8Z" style="fill:#6188FF"></path><path d="M271.14,330.14a366.48,366.48,0,0,0-33,18.55c-.16.1,0,.36.17.28a365.46,365.46,0,0,0,33.07-18.52C271.5,330.34,271.32,330.05,271.14,330.14Z" style="fill:#263238"></path><path d="M270.18,339.58,237.65,357.8s-9.19-34.13-11.45-56.47c-1.44-14.13.56-24.06,6.22-24.23Z" style="opacity:0.1"></path><path d="M126.5,419.7H276C277.91,418.3,260.59,317,238.58,282c-4.12-6.54-23.86-16.54-39.31-4.69C152.64,313.08,124.75,417.46,126.5,419.7Z" style="fill:#6188FF"></path><path d="M302.23,344.23A85.15,85.15,0,0,1,317.68,338c7.15-1.85,22.84-4.69,25.65-5.86l4.75-.17-30.71,81-42.08,8.64-70-16.7,25-77.08,4.82-.24S244,330,251.33,331.4,284.08,333.9,302.23,344.23Z" style="fill:#fff"></path><polygon points="269.05 423.68 296.52 345.61 227.26 327.04 201.24 406.74 269.05 423.68" style="fill:#455a64"></polygon><polygon points="269.05 423.68 279.14 424.24 306.72 346.16 296.52 345.61 269.05 423.68" style="fill:#37474f"></polygon><polygon points="279.14 424.24 306.72 346.16 350.12 331.26 318.49 413.76 279.14 424.24" style="fill:#455a64"></polygon><path d="M195,281.5c-35.52,40.29-80.59,115.33-72.8,130.18,9.88,18.83,78.11,15.35,94,11.64,6.79-1.58-16.69-60.44-24-58.9-6.36,1.34-11.85,2.68-12.07,1.8s18.76-28.93,30.32-69.33C218.4,269.35,202.54,273,195,281.5Z" style="fill: rgb(235, 148, 129);"></path><path d="M160.29,392.45s2.65-2.72,14.29-19.31c8-11.48,35-34.29,73.28-25,14.66,3.57,18.57,15.42,2.67,14.42-11.2-.71-18.89-2.16-22.61-1.36,0,0,12.74,11.51,11.57,21.39a183.35,183.35,0,0,1-4.89,25.61,39.79,39.79,0,0,1-4.88-.49,20.9,20.9,0,0,1-15.48,16Z" style="fill: rgb(235, 148, 129);"></path><path d="M184,363.41c7.14-1.76,22.32-5.23,35.73-3.75,14.89,1.65,43.13,8.83,41.81,19.81-1,8-12,6.26-12,6.26s11.05,5.43,8.58,12.51c-2.25,6.45-10.7,4.55-10.7,4.55s6.14,4.45,2.77,10.25c-4,7-16.24-3.49-26.45,0C221.46,413.86,184,363.41,184,363.41Z" style="fill: rgb(235, 148, 129);"></path><path d="M215.37,375.11c7-.55,23.16,2.26,34.06,10.33.25.18.24.47,0,.35a147.06,147.06,0,0,0-34-10.54C215.28,375.24,215.3,375.12,215.37,375.11Z" style="fill:#263238"></path><path d="M214.15,390.19c6.07.14,22.62,3.79,33.38,12.35.24.19.21.47,0,.34a157.71,157.71,0,0,0-33.36-12.55A.07.07,0,0,1,214.15,390.19Z" style="fill:#263238"></path><path d="M149.66,384.72c4.28-5.54,17.23-15.63,30.53-18.28.3-.06.51.14.25.25a147.22,147.22,0,0,0-30.69,18.14C149.69,384.88,149.61,384.78,149.66,384.72Z" style="fill:#263238"></path><path d="M153.07,331.19l42.32,16.11s11.1-29.34,16.78-54.65-7.45-22.54-23.14-6.48S153.07,331.19,153.07,331.19Z" style="fill:#6188FF"></path><path d="M208.5,314.53a.09.09,0,0,0-.17-.08l-2.19,4.13q1.14-4.2,2.12-8.46c0-.09-.13-.15-.16-.06q-3.22,9.18-6.31,18.38c-2,6.15-4.38,12.21-6.36,18.38-1.22-.24-1.88-.44-2.79-.59-.21,0-.34.2-.15.3a13.86,13.86,0,0,0,3.48,1.31c2.68-5.9,4.85-12.52,6.94-18.65,1-3,2-6.05,2.82-9.11A55.19,55.19,0,0,0,208.5,314.53Z" style="fill:#263238"></path><path d="M195.77,339.13a364.8,364.8,0,0,0-35.43-13.45c-.18-.06-.28.24-.11.31a363,363,0,0,0,35.43,13.48C195.85,339.54,196,339.21,195.77,339.13Z" style="fill:#263238"></path><path d="M208,279.2c0,2.45,7.69,20,18.41,21.91,3.5.61,7.68-18.3,7.68-18.3l.63-1.33,8.78-18.56L221,240.3S208,278.17,208,279.2Z" style="fill: rgb(235, 148, 129);"></path><path d="M243.5,262.92l-8.78,18.55-.63,1.34s-.76,3.42-1.9,7.31c-14-5.41-18.14-17.77-19.34-25.91,3.69-11,8.14-23.9,8.14-23.9Z" style="fill:#263238"></path><path d="M279.32,233.62c-4.64,43.75-31.36,45.92-40.8,44.91-8.56-.92-37.6-5.12-37.52-49.12s21.9-55.67,41.59-54.61S284,189.87,279.32,233.62Z" style="fill: rgb(235, 148, 129);"></path><path d="M268.16,240.19c4.82.73,3,10.33-1.46,9.65S264.11,239.58,268.16,240.19Z" style="fill:#263238"></path><path d="M245.85,237c-4.8-.91-6.27,8.75-1.83,9.59S249.86,237.74,245.85,237Z" style="fill:#263238"></path><path d="M272.39,234.7a29.69,29.69,0,0,1-2.82-1.14,4.9,4.9,0,0,1-2.65-1.71,1.56,1.56,0,0,1,.34-1.88c1.15-.93,2.6-.71,3.92-.22a5.65,5.65,0,0,1,3.17,2.61A1.67,1.67,0,0,1,272.39,234.7Z" style="fill:#263238"></path><path d="M242.71,230.88c1,.06,2-.06,3-.1a4.92,4.92,0,0,0,3.08-.69,1.57,1.57,0,0,0,.33-1.88,3.88,3.88,0,0,0-3.61-1.56,5.67,5.67,0,0,0-3.88,1.36A1.67,1.67,0,0,0,242.71,230.88Z" style="fill:#263238"></path><path d="M242.35,263.35c.54.85,1,2,2,2.3a7.86,7.86,0,0,0,3.31,0,.11.11,0,0,1,.09.18,4,4,0,0,1-4.08.69,3.18,3.18,0,0,1-1.67-3.12C242,263.24,242.28,263.23,242.35,263.35Z" style="fill:#263238"></path><path d="M256.61,254.93s-.19,4.51-.57,6.59c0,.19-.55.2-1.27.11,0,0-.05,0-.08,0a10.05,10.05,0,0,1-8.92-5.43c-.1-.23.2-.39.37-.23,2.37,2.51,5.3,3.57,8.54,4.22.25-.55.09-7.82.4-7.71,1.34.49,3.66,1.54,4.52,1.93.19-2.93.32-11.28.68-16.61,0-.33.54-.35.56,0a141,141,0,0,1,.57,18.8C261.39,257.05,257.38,255.43,256.61,254.93Z" style="fill:#263238"></path><path d="M195.73,231.61c12.26,4.55,23.17-8.47,23.76-21.34,0,0,32,14.17,41.43-12.1a27.33,27.33,0,0,0,18.13,18.34l.83,11c3.71,0,10.19-8.63,4.06-18.69,0,0,3.33-13.5-4.15-24.37A19,19,0,0,0,261,175.92a28.73,28.73,0,0,0-18.63-10.83c-12.73-2-21,7.69-21,7.69s-17.42-1.68-23.66,9.21-2.49,20.52-2.49,20.52-5.48,3.39-6.31,14C188.34,223.34,192.05,230.24,195.73,231.61Z" style="fill:#263238"></path><path d="M260.88,195.58a33.14,33.14,0,0,1-1.84,6.55,27.28,27.28,0,0,1-3.06,6,17.55,17.55,0,0,1-10.52,7.34c-4.27,1.25-8.81.31-13.18-.51-2.14-.7-4.34-1.25-6.45-2.07s-4.19-1.76-6.34-2.58c2,1.14,4,2.19,6,3.3s4.28,1.68,6.43,2.54c4.45,1.11,9.2,2.1,13.89.88A18.36,18.36,0,0,0,257,208.77,27.88,27.88,0,0,0,260.88,195.58Z" style="fill:#263238"></path><path d="M221.33,172.78a32.22,32.22,0,0,0-13.05-.94,19.35,19.35,0,0,0-11.85,5.94,21.27,21.27,0,0,0-3.41,5.8,19.7,19.7,0,0,0-1.56,6.5,18,18,0,0,0,3.72,12.43,19.75,19.75,0,0,1-2.49-12.32,22,22,0,0,1,4.95-11.36,16.57,16.57,0,0,1,4.87-3.79,25.07,25.07,0,0,1,6-2A40.66,40.66,0,0,1,221.33,172.78Z" style="fill:#263238"></path><path d="M261,175.92a32.8,32.8,0,0,1,10.34,1,19.81,19.81,0,0,1,8.78,4.83,20.12,20.12,0,0,1,5,8.71,35.52,35.52,0,0,1,1.3,10.32,26.26,26.26,0,0,0-.1-10.63,17.89,17.89,0,0,0-14.68-14.43A24.84,24.84,0,0,0,261,175.92Z" style="fill:#263238"></path><path d="M273.51,216.06a35.71,35.71,0,0,1-8.5-8.4,21.45,21.45,0,0,1-2.71-5.2,27.49,27.49,0,0,1-1.32-5.88,15,15,0,0,0,.13,6.22,16,16,0,0,0,2.58,5.78,20.17,20.17,0,0,0,4.36,4.53A18.79,18.79,0,0,0,273.51,216.06Z" style="fill:#263238"></path><path d="M227.55,242.41a.7.7,0,1,1-1.27-.61.7.7,0,0,1,1.27.61Z" style="fill: rgb(235, 148, 129);"></path><path d="M241.24,248.21a.71.71,0,1,1-.33-1A.72.72,0,0,1,241.24,248.21Z" style="fill: rgb(235, 148, 129);"></path><path d="M234.27,250.64a.71.71,0,0,1-1,.33A.7.7,0,0,1,233,250a.71.71,0,0,1,.95-.33A.7.7,0,0,1,234.27,250.64Z" style="fill: rgb(235, 148, 129);"></path><path d="M230.45,237.3a.71.71,0,0,1-.95.33.71.71,0,1,1,.95-.33Z" style="fill: rgb(235, 148, 129);"></path><path d="M235,243.93a.71.71,0,1,1-.34-.94A.7.7,0,0,1,235,243.93Z" style="fill: rgb(235, 148, 129);"></path><path d="M272.4,250.48a.71.71,0,0,1-1.28-.62.71.71,0,0,1,1.28.62Z" style="fill: rgb(235, 148, 129);"></path><path d="M265.66,251.72a.7.7,0,0,1-.94.33.71.71,0,0,1-.33-1,.7.7,0,0,1,.94-.33A.72.72,0,0,1,265.66,251.72Z" style="fill: rgb(235, 148, 129);"></path><path d="M264.92,256.54a.72.72,0,0,1-.95.33.7.7,0,1,1,.95-.33Z" style="fill: rgb(235, 148, 129);"></path><path d="M270.67,255.7a.71.71,0,1,1-.33-.95A.72.72,0,0,1,270.67,255.7Z" style="fill: rgb(235, 148, 129);"></path><path d="M234.78,252.7a15.37,15.37,0,1,1,19.82-14h0a15.38,15.38,0,0,1-16,14.64A15.57,15.57,0,0,1,234.78,252.7Zm8.34-27.44a13,13,0,0,0-3.26-.56,13.31,13.31,0,1,0,3.26.56Z" style="fill:#455a64"></path><path d="M268.25,258.37c-5.63-1.71-9-9-7.56-16.91a18.35,18.35,0,0,1,5.1-10,10.17,10.17,0,0,1,8.88-3.1c3.08.55,5.64,2.69,7.24,6a18.3,18.3,0,0,1,1.29,11.14c-1.5,8.34-7.77,14.22-14,13.1A7.79,7.79,0,0,1,268.25,258.37Zm6.81-27.8a4.82,4.82,0,0,0-.75-.18,8.17,8.17,0,0,0-7.1,2.55,16.33,16.33,0,0,0-4.5,8.88c-1.3,7.23,1.77,13.85,6.88,14.77s10.29-4.22,11.59-11.44a16.24,16.24,0,0,0-1.12-9.89A8.46,8.46,0,0,0,275.06,230.57Z" style="fill:#455a64"></path><path d="M253.93,240.38l-.86-1.51c2.22-1.27,7.09-2.65,9.6,1.24l-1.45.94C259,237.56,254.13,240.26,253.93,240.38Z" style="fill:#455a64"></path><path d="M191.8,232.6l-1.37-1c.49-.64,4.92-6.25,8.84-6.19,3.66.08,26.12,6.33,27.07,6.6l-.46,1.66c-6.44-1.8-23.81-6.48-26.64-6.52C196.65,227.05,193,231.06,191.8,232.6Z" style="fill:#455a64"></path><path d="M208.89,234.32s-6.8-15.31-13.57-13.14-3.49,23.09,3.17,27.16a7.44,7.44,0,0,0,10.55-2Z" style="fill: rgb(235, 148, 129);"></path><path d="M196.41,227.16c-.12,0-.17.12-.08.18,4.64,3,6.38,8.2,7.3,13.41-1.14-2.16-3-3.58-5.82-2.28-.15.07-.06.3.08.3a4.57,4.57,0,0,1,4.64,2.53,21.72,21.72,0,0,1,1.59,4.46c.15.49,1,.41.94-.14a.59.59,0,0,0,0-.13C206.42,239.1,203.17,229.14,196.41,227.16Z" style="fill:#263238"></path></g></svg>